<svg width="6" height="18" viewBox="0 0 6 18" fill="none" xmlns="http://www.w3.org/2000/svg">
<path fill-rule="evenodd" clip-rule="evenodd" d="M2.99133 16.502C3.95783 16.502 4.74133 15.7185 4.74133 14.752C4.74133 13.7855 3.95783 13.002 2.99133 13.002C2.02483 13.002 1.24133 13.7855 1.24133 14.752C1.24133 15.7185 2.02483 16.502 2.99133 16.502Z" stroke="#6A6781" stroke-width="1.5" stroke-linecap="round" stroke-linejoin="round"/>
<path fill-rule="evenodd" clip-rule="evenodd" d="M2.99133 5.00201C3.95783 5.00201 4.74133 4.21851 4.74133 3.25201C4.74133 2.28552 3.95783 1.50201 2.99133 1.50201C2.02483 1.50201 1.24133 2.28552 1.24133 3.25201C1.24133 4.21851 2.02483 5.00201 2.99133 5.00201Z" stroke="#6A6781" stroke-width="1.5" stroke-linecap="round" stroke-linejoin="round"/>
<path fill-rule="evenodd" clip-rule="evenodd" d="M2.99133 10.752C3.95783 10.752 4.74133 9.96851 4.74133 9.00201C4.74133 8.03552 3.95783 7.25201 2.99133 7.25201C2.02483 7.25201 1.24133 8.03552 1.24133 9.00201C1.24133 9.96851 2.02483 10.752 2.99133 10.752Z" stroke="#6A6781" stroke-width="1.5" stroke-linecap="round" stroke-linejoin="round"/>
</svg>
