<svg width="680" height="155" viewBox="0 0 680 155" fill="none" xmlns="http://www.w3.org/2000/svg">
    <path d="M336 2.30941C338.475 0.880344 341.525 0.880345 344 2.30941L363.713 13.6906C366.188 15.1197 367.713 17.7607 367.713 20.6188V43.3812C367.713 46.2393 366.188 48.8803 363.713 50.3094L344 61.6906C341.525 63.1197 338.475 63.1197 336 61.6906L316.287 50.3094C313.812 48.8803 312.287 46.2393 312.287 43.3812V20.6188C312.287 17.7607 313.812 15.1197 316.287 13.6906L336 2.30941Z" fill="white" />
    <path fill-rule="evenodd" clip-rule="evenodd" d="M362.213 16.2887L342.5 4.90748C340.953 4.01432 339.047 4.01432 337.5 4.90748L317.787 16.2887C316.24 17.1818 315.287 18.8325 315.287 20.6188V43.3812C315.287 45.1675 316.24 46.8182 317.787 47.7113L337.5 59.0925C339.047 59.9857 340.953 59.9857 342.5 59.0925L362.213 47.7113C363.76 46.8182 364.713 45.1675 364.713 43.3812V20.6188C364.713 18.8325 363.76 17.1818 362.213 16.2887ZM344 2.30941C341.525 0.880345 338.475 0.880344 336 2.30941L316.287 13.6906C313.812 15.1197 312.287 17.7607 312.287 20.6188V43.3812C312.287 46.2393 313.812 48.8803 316.287 50.3094L336 61.6906C338.475 63.1197 341.525 63.1197 344 61.6906L363.713 50.3094C366.188 48.8803 367.713 46.2393 367.713 43.3812V20.6188C367.713 17.7607 366.188 15.1197 363.713 13.6906L344 2.30941Z" fill="#130B43" />
    <path fill-rule="evenodd" clip-rule="evenodd" d="M340.875 18.875C336.429 18.8686 332.33 21.2748 330.168 25.1596C328.007 29.0445 328.123 33.7963 330.472 37.5708L326.875 45.125L334.429 41.5282C338.846 44.2746 344.517 43.932 348.571 40.6736C352.626 37.4152 354.18 31.9516 352.448 27.0468C350.717 22.142 346.077 18.8656 340.875 18.875Z" stroke="#130B43" stroke-width="2" stroke-linecap="round" stroke-linejoin="round" />
    <path fill-rule="evenodd" clip-rule="evenodd" d="M344.375 33.75C344.375 35.683 342.808 37.25 340.875 37.25C338.942 37.25 337.375 35.683 337.375 33.75H344.375Z" stroke="#130B43" stroke-width="1.5" stroke-linecap="round" stroke-linejoin="round" />
    <path d="M335.625 28.9375C335.383 28.9375 335.188 29.1334 335.188 29.375C335.188 29.6166 335.383 29.8125 335.625 29.8125C335.867 29.8125 336.062 29.6166 336.062 29.375C336.062 29.1334 335.867 28.9375 335.625 28.9375" stroke="#130B43" stroke-width="1.5" stroke-linecap="round" stroke-linejoin="round" />
    <path d="M346.125 28.9375C345.883 28.9375 345.688 29.1334 345.688 29.375C345.688 29.6166 345.883 29.8125 346.125 29.8125C346.367 29.8125 346.563 29.6166 346.563 29.375C346.563 29.1334 346.367 28.9375 346.125 28.9375" stroke="#130B43" stroke-width="1.5" stroke-linecap="round" stroke-linejoin="round" />
</svg>